<svg width="128" height="128" viewBox="0 0 128 128" fill="none" xmlns="http://www.w3.org/2000/svg">
<rect width="128" height="128" fill="#F5F5F5"/>
<path d="M0 2C0 0.895431 0.895431 0 2 0H126C127.105 0 128 0.895431 128 2V126C128 127.105 127.105 128 126 128H2C0.895431 128 0 127.105 0 126V2Z" fill="white"/>
<path d="M2 0V1H126V0V-1H2V0ZM128 2H127V126H128H129V2H128ZM126 128V127H2V128V129H126V128ZM0 126H1V2H0H-1V126H0ZM2 128V127C1.44772 127 1 126.552 1 126H0H-1C-1 127.657 0.343146 129 2 129V128ZM128 126H127C127 126.552 126.552 127 126 127V128V129C127.657 129 129 127.657 129 126H128ZM126 0V1C126.552 1 127 1.44772 127 2H128H129C129 0.343146 127.657 -1 126 -1V0ZM2 0V-1C0.343146 -1 -1 0.343146 -1 2H0H1C1 1.44772 1.44772 1 2 1V0Z" fill="black" fill-opacity="0.1"/>
<path d="M56.6667 30L74.9394 97L71.8939 94.9697L54.6364 32.0303H34.3333L15.0455 94.9697H32.303L34.3333 82.7879H52.6061L54.6364 94.9697H74.3857L74.9394 97H52.6061L50.5758 84.8182H36.3636L34.3333 97H12L32.303 30H56.6667Z" fill="#74B0CA"/>
<path d="M97.2727 30L115.545 97L112.5 94.9697L95.2424 32.0303H74.9394L66.8182 66.5455L72.9091 94.9697L74.9394 82.7879H93.2121L95.2424 94.9697H114.992L115.545 97H93.2121L91.1818 84.8182H76.9697L74.9394 97L64.7879 64.5152L72.9091 30H97.2727Z" fill="#74B0CA"/>
<path d="M14 96L33.3838 31H55.8283L66.0303 65.5312L74.1919 31H96.6364L115 96H95.6162L94.596 94.9844L92.5556 84.8281L91.5354 83.8125H76.2323L75.2121 91.9375L73.1717 96H54.8081L53.7879 94.9844L51.7475 84.8281L50.7273 83.8125H36.4444L35.4242 84.8281L33.3838 96H14Z" fill="#74B0CA"/>
<path d="M53 59.5C53 64.7467 48.7467 69 43.5 69C38.2533 69 34 64.7467 34 59.5C34 54.2533 38.2533 50 43.5 50C48.7467 50 53 54.2533 53 59.5Z" fill="white"/>
<path d="M50.8889 59.5C50.8889 55.4192 47.5808 52.1111 43.5 52.1111C39.4192 52.1111 36.1111 55.4192 36.1111 59.5C36.1111 63.5808 39.4192 66.8889 43.5 66.8889V69C38.2533 69 34 64.7467 34 59.5C34 54.2533 38.2533 50 43.5 50C48.7467 50 53 54.2533 53 59.5C53 64.7467 48.7467 69 43.5 69V66.8889C47.5808 66.8889 50.8889 63.5808 50.8889 59.5Z" fill="#1F7099"/>
<path d="M77 59.5C77 55.3579 80.3579 52 84.5 52V52C88.6421 52 92 55.3579 92 59.5V59.5C92 63.6421 88.6421 67 84.5 67V67C80.3579 67 77 63.6421 77 59.5V59.5Z" fill="white"/>
</svg>
